<svg width="800" height="800" viewBox="0 0 800 800" fill="none" xmlns="http://www.w3.org/2000/svg">
<path d="M560.723 171.147C536.287 143.131 521.597 106.602 521.597 66.6666H490.977M560.723 171.147C582.993 196.688 613.147 215.263 647.483 222.536C658.153 224.858 669.287 226.098 680.887 226.098V340.637C621.5 340.637 566.44 321.6 521.59 289.404V522.357C521.59 638.757 426.94 733.333 310.795 733.333C250.014 733.333 195.111 707.327 156.602 666C121.495 628.233 99.998 577.77 99.998 522.357C99.998 407.66 191.864 314.17 305.691 311.693M560.723 171.147C560.13 170.759 559.537 170.367 558.947 169.971M232.85 578.39C221.406 562.603 214.601 543.257 214.601 522.203C214.601 469.113 257.75 425.927 310.798 425.927C320.696 425.927 330.283 427.627 339.253 430.413V313.397C329.974 312.158 320.541 311.383 310.798 311.383C309.096 311.383 295.392 312.295 293.691 312.295M490.813 66.6666H406.99L406.837 525.917C404.98 577.307 362.603 618.637 310.795 618.637C278.626 618.637 250.324 602.693 232.693 578.547" stroke="white" stroke-width="33.3333" stroke-linejoin="round"/>
</svg>
