<svg width="156" height="44" viewBox="0 0 156 44" fill="none" xmlns="http://www.w3.org/2000/svg">
<path d="M21.802 24.93C23.5085 24.93 24.892 23.5466 24.892 21.84C24.892 20.1335 23.5085 18.75 21.802 18.75C20.0954 18.75 18.712 20.1335 18.712 21.84C18.712 23.5466 20.0954 24.93 21.802 24.93Z" fill="white"/>
<path fill-rule="evenodd" clip-rule="evenodd" d="M34.062 21.85C34.0655 24.5542 33.1683 27.1825 31.512 29.3201L33.722 31.52C35.9463 28.7862 37.1607 25.3694 37.1607 21.845C37.1607 18.3206 35.9463 14.9039 33.722 12.17L31.512 14.3701C33.1697 16.5107 34.067 19.1426 34.062 21.85Z" fill="white"/>
<path fill-rule="evenodd" clip-rule="evenodd" d="M38.332 36.14C41.7699 32.1729 43.6624 27.0995 43.6624 21.85C43.6624 16.6006 41.7699 11.5271 38.332 7.56006L35.912 9.97003C38.7139 13.2925 40.2508 17.4988 40.2508 21.845C40.2508 26.1913 38.7139 30.3975 35.912 33.72L38.332 36.14Z" fill="white"/>
<path fill-rule="evenodd" clip-rule="evenodd" d="M27.882 21.85C27.8771 22.9047 27.5942 23.9395 27.062 24.85L29.302 27.09C30.3893 25.5497 30.973 23.7105 30.973 21.825C30.973 19.9396 30.3893 18.1004 29.302 16.5601L27.062 18.8C27.6028 19.7252 27.8859 20.7784 27.882 21.85Z" fill="white"/>
<path fill-rule="evenodd" clip-rule="evenodd" d="M21.812 40.23C19.0026 40.2329 16.2298 39.5938 13.7051 38.3616C11.1804 37.1293 8.97066 35.3365 7.24454 33.12C5.51841 30.9035 4.32155 28.3218 3.74533 25.5722C3.16912 22.8226 3.22877 19.9776 3.91975 17.2546C4.61074 14.5315 5.91478 12.0024 7.73232 9.86015C9.54985 7.71794 11.8328 6.01934 14.4069 4.89402C16.9811 3.7687 19.7783 3.24642 22.5851 3.36705C25.3918 3.48767 28.1339 4.24799 30.602 5.59001L28.292 7.88999C25.8174 6.73972 23.081 6.26998 20.3644 6.52903C17.6479 6.78809 15.0495 7.76662 12.837 9.36387C10.6244 10.9611 8.87765 13.1193 7.7766 15.6162C6.67555 18.1131 6.26001 20.8583 6.5728 23.5691C6.88559 26.28 7.91541 28.8585 9.55615 31.039C11.1969 33.2195 13.3893 34.9232 15.9074 35.9746C18.4256 37.026 21.1785 37.3871 23.8827 37.0207C26.5868 36.6543 29.1444 35.5736 31.292 33.89L24.602 27.23C23.7425 27.6849 22.7845 27.9219 21.812 27.92C20.8926 27.9203 19.9851 27.7117 19.1581 27.3099C18.3311 26.9082 17.6062 26.3238 17.0381 25.6009C16.4699 24.8781 16.0734 24.0356 15.8785 23.1371C15.6835 22.2386 15.6952 21.3075 15.9127 20.4142C16.1302 19.5208 16.5478 18.6886 17.1339 17.9803C17.7201 17.2719 18.4595 16.706 19.2963 16.3252C20.1331 15.9444 21.0455 15.7586 21.9647 15.782C22.8838 15.8053 23.7856 16.0372 24.602 16.46L26.862 14.21C25.6686 13.4207 24.307 12.922 22.8861 12.7538C21.4653 12.5855 20.0248 12.7524 18.6801 13.2411C17.3354 13.7298 16.1238 14.5268 15.1426 15.568C14.1613 16.6093 13.4376 17.8659 13.0295 19.2372C12.6214 20.6085 12.5401 22.0565 12.7923 23.4648C13.0445 24.8732 13.6232 26.2029 14.4818 27.3473C15.3404 28.4918 16.4552 29.4192 17.7368 30.0553C19.0185 30.6913 20.4313 31.0183 21.862 31.01C22.3987 31.0062 22.934 30.9559 23.462 30.86L25.982 33.38C23.9887 34.0977 21.8434 34.2866 19.7554 33.9283C17.6673 33.57 15.7078 32.6767 14.0678 31.3356C12.4278 29.9944 11.1633 28.2511 10.3976 26.2757C9.63193 24.3004 9.3912 22.1604 9.6989 20.0642C10.0066 17.9681 10.8522 15.9876 12.1533 14.3156C13.4544 12.6436 15.1666 11.3373 17.1228 10.5241C19.0791 9.71087 21.2127 9.41848 23.3156 9.6754C25.4186 9.93231 27.419 10.7298 29.122 11.99L35.952 5.16001C32.7701 2.47153 28.8861 0.748614 24.7575 0.194316C20.6289 -0.359983 16.4279 0.277464 12.6496 2.03147C8.87131 3.78548 5.67311 6.58296 3.43193 10.0943C1.19075 13.6056 0 17.6844 0 21.85C0 26.0156 1.19075 30.0944 3.43193 33.6058C5.67311 37.1171 8.87131 39.9146 12.6496 41.6686C16.4279 43.4226 20.6289 44.06 24.7575 43.5057C28.8861 42.9514 32.7701 41.2285 35.952 38.54L33.542 36.12C30.2271 38.8091 26.0804 40.2621 21.812 40.23Z" fill="white"/>
<path d="M61.122 31.6101C59.7394 31.6632 58.3622 31.4092 57.0895 30.8662C55.8169 30.3233 54.6804 29.5049 53.762 28.47C52.0938 26.5802 51.2009 24.1301 51.262 21.6101C51.1864 19.1885 52.0417 16.8301 53.652 15.02C54.6053 14.0085 55.7671 13.2163 57.057 12.6983C58.3468 12.1803 59.7338 11.9489 61.122 12.02H72.122V15.4301H61.122C60.2355 15.3948 59.3516 15.5486 58.5292 15.8814C57.7067 16.2141 56.9645 16.7182 56.352 17.3601C55.2783 18.5188 54.6664 20.0307 54.632 21.6101C54.536 23.2582 55.0847 24.8791 56.162 26.1301C56.7857 26.8295 57.5593 27.3789 58.4251 27.7373C59.2909 28.0958 60.2265 28.2539 61.162 28.2H72.162V31.6101H61.122Z" fill="white"/>
<path d="M75.952 31.6V12.02H79.362V31.6H75.952Z" fill="white"/>
<path d="M98.242 31.6101H83.312V28.2301H98.242C99.2101 28.2793 100.164 27.9814 100.932 27.39C101.219 27.167 101.451 26.8821 101.612 26.5565C101.773 26.231 101.859 25.8733 101.862 25.5101C101.865 25.156 101.785 24.8061 101.629 24.4883C101.473 24.1705 101.244 23.8938 100.962 23.6801C100.176 23.1041 99.215 22.818 98.242 22.8701H88.972C88.1341 22.9118 87.2963 22.7836 86.5092 22.4932C85.7222 22.2027 85.002 21.7561 84.392 21.1801C83.4173 20.1872 82.8712 18.8514 82.8712 17.46C82.8712 16.0687 83.4173 14.7329 84.392 13.7401C85.002 13.1641 85.7222 12.7174 86.5092 12.427C87.2963 12.1365 88.1341 12.0083 88.972 12.0501H103.752V15.46H88.972C88.3419 15.4251 87.7236 15.6409 87.252 16.0601C87.0536 16.2375 86.895 16.4548 86.7864 16.6978C86.6778 16.9407 86.6218 17.2039 86.622 17.47C86.6154 17.7265 86.6638 17.9815 86.7638 18.2178C86.8639 18.4541 87.0133 18.6662 87.202 18.84C87.687 19.2723 88.3233 19.4952 88.972 19.46H98.232C99.1516 19.4207 100.07 19.5698 100.929 19.8983C101.789 20.2267 102.573 20.7276 103.232 21.3701C103.78 21.9258 104.212 22.5852 104.502 23.3098C104.792 24.0344 104.935 24.8096 104.922 25.59C104.939 26.3618 104.8 27.1292 104.513 27.8458C104.226 28.5625 103.797 29.2137 103.252 29.7601C102.591 30.3976 101.806 30.8933 100.946 31.2166C100.086 31.5399 99.1695 31.6839 98.252 31.64L98.242 31.6101Z" fill="white"/>
<path d="M122.152 31.6101H107.222V28.2301H122.152C123.12 28.2793 124.074 27.9814 124.842 27.39C125.129 27.167 125.361 26.8821 125.522 26.5565C125.683 26.231 125.769 25.8733 125.772 25.5101C125.775 25.156 125.695 24.8061 125.539 24.4883C125.383 24.1705 125.154 23.8938 124.872 23.6801C124.086 23.1041 123.125 22.818 122.152 22.8701H112.892C112.054 22.9118 111.216 22.7836 110.429 22.4932C109.642 22.2027 108.922 21.7561 108.312 21.1801C107.337 20.1872 106.791 18.8514 106.791 17.46C106.791 16.0687 107.337 14.7329 108.312 13.7401C108.922 13.1641 109.642 12.7174 110.429 12.427C111.216 12.1365 112.054 12.0083 112.892 12.0501H127.682V15.46H112.892C112.262 15.4251 111.644 15.6409 111.172 16.0601C110.976 16.2392 110.82 16.457 110.714 16.6998C110.607 16.9425 110.552 17.2049 110.552 17.47C110.546 17.7255 110.594 17.9794 110.692 18.2154C110.79 18.4514 110.937 18.6641 111.122 18.84C111.607 19.2723 112.243 19.4952 112.892 19.46H122.152C123.072 19.4183 123.99 19.5663 124.851 19.8949C125.711 20.2235 126.494 20.7257 127.152 21.3701C127.7 21.9258 128.132 22.5852 128.422 23.3098C128.712 24.0344 128.855 24.8096 128.842 25.59C128.858 26.3608 128.72 27.1271 128.435 27.8434C128.15 28.5597 127.724 29.2115 127.182 29.7601C126.519 30.3957 125.734 30.89 124.875 31.2132C124.015 31.5364 123.099 31.6816 122.182 31.64L122.152 31.6101Z" fill="white"/>
<path d="M145.362 13.8801C145.016 13.2763 144.533 12.7624 143.952 12.3801C143.563 12.0983 143.092 11.954 142.612 11.97C142.156 12.0256 141.723 12.2055 141.362 12.49C140.82 12.8472 140.365 13.3224 140.032 13.8801L129.402 31.58H133.792L142.622 17.06L146.032 22.7H141.192L139.112 26.1H148.062L151.382 31.58H155.772L145.362 13.8801Z" fill="white"/>
</svg>
