<svg width="800" height="800" viewBox="0 0 800 800" fill="none" xmlns="http://www.w3.org/2000/svg">
<g clip-path="url(#clip0_105_53)">
<mask id="mask0_105_53" style="mask-type:luminance" maskUnits="userSpaceOnUse" x="0" y="0" width="800" height="800">
<path d="M0 0H800V800H0V0Z" fill="white"/>
</mask>
<g mask="url(#mask0_105_53)">
<path fill-rule="evenodd" clip-rule="evenodd" d="M226.251 295.983C192.817 273.483 170.834 235.292 170.834 191.971C170.834 125.858 222.034 71.704 286.946 66.9998V66.6665H509.167V66.7623C576.051 69.3873 629.467 124.442 629.467 191.971C629.467 235.292 607.48 273.479 574.055 295.983C607.48 318.483 629.467 356.675 629.467 400C629.467 469.204 573.367 525.304 504.167 525.304C473.646 525.347 444.166 514.208 421.301 493.991V529.308C421.392 530.541 421.438 531.787 421.438 533.046V650.508C421.438 696.241 384.351 733.333 338.613 733.333H296.138C226.934 733.333 170.834 677.233 170.834 608.029C170.834 564.708 192.821 526.521 226.251 504.016C192.817 481.512 170.834 443.325 170.834 400C170.834 356.679 192.821 318.487 226.251 295.983ZM221.151 191.971C221.151 150.554 254.721 116.983 296.138 116.983H371.126V266.958H296.138C254.721 266.958 221.151 233.383 221.151 191.971ZM504.167 266.958H429.18V116.983H504.167C545.58 116.983 579.155 150.554 579.155 191.971C579.155 233.383 545.58 266.958 504.167 266.958ZM296.138 474.987C254.721 474.987 221.151 441.412 221.151 400C221.151 358.587 254.721 325.012 296.138 325.012H371.126V474.987H296.138ZM296.138 683.021C254.721 683.021 221.151 649.441 221.151 608.029C221.151 566.616 254.721 533.046 296.138 533.046H371.126V650.508C371.123 659.13 367.697 667.399 361.601 673.495C355.504 679.592 347.235 683.018 338.613 683.021H296.138ZM504.167 474.987C545.58 474.987 579.155 441.412 579.155 400C579.155 358.583 545.58 325.012 504.167 325.012C462.751 325.012 429.18 358.587 429.18 400C429.18 441.412 462.751 474.987 504.167 474.987Z" fill="white"/>
</g>
</g>
<defs>
<clipPath id="clip0_105_53">
<rect width="800" height="800" fill="white"/>
</clipPath>
</defs>
</svg>
