<svg width="800" height="800" viewBox="0 0 800 800" fill="none" xmlns="http://www.w3.org/2000/svg">
<path d="M373.075 202C372.45 203.8 369.55 203.525 367.9 204.05C366.425 204.825 365.225 206.175 363.525 206.175C361.975 206.175 359.475 205.55 359.275 204.05C358.975 202 362.025 199.9 363.95 199.9C365.2 199.3 366.65 198.975 368.175 198.975C369.575 198.975 370.9 199.25 372.1 199.775L372.025 199.75C372.575 199.975 372.975 200.5 372.975 201.125C372.975 201.2 372.975 201.25 372.95 201.325V201.95H373.05L373.075 202ZM390.275 202V201.325C390.075 200.7 390.675 200.025 391.175 199.775C392.325 199.275 393.675 198.975 395.1 198.975C396.625 198.975 398.075 199.325 399.35 199.925L399.3 199.9C401.275 199.9 404.3 202 403.975 204.125C403.8 205.65 401.325 206.175 399.75 206.175C398.025 206.175 396.875 204.825 395.35 204.05C393.725 203.475 390.8 203.8 390.25 202.025L390.275 202ZM424.075 251.45C410.775 259.875 395.05 265.8 378.2 268.1L377.6 268.175C362.45 267.3 348.675 261.975 337.425 253.475L337.6 253.6C332.8 249.425 328.85 245.225 325.95 243.125C320.825 238.95 321.45 232.725 323.65 232.725C327.05 233.225 327.675 236.9 329.875 238.975C332.875 241.025 336.6 245.225 341.125 249.375C351.05 257.575 363.6 262.9 377.375 263.95L377.6 263.975C393.95 262.55 408.825 257.3 421.675 249.175L421.275 249.425C427.375 245.2 435.175 239 441.525 234.825C446.4 230.575 446.175 226.475 450.25 226.475C454.25 226.975 451.325 230.65 445.65 236.85C439.5 241.55 432.475 246.375 425.2 250.85L424.1 251.475L424.075 251.45ZM200.425 534.925H200.725C202.45 534.925 204.15 535.1 205.8 535.4L205.625 535.375C219.225 538.875 230.425 547.325 237.45 558.65L237.575 558.875L266 610.85L266.1 610.95C277.525 630.275 289.8 647 303.525 662.425L303.25 662.1C315.5 675.1 323.75 692 325.975 710.75L326.025 711.15V711.35C325.725 731.775 310.7 748.625 291.125 751.75L290.9 751.775C285.9 752.55 280.1 752.975 274.225 752.975C252.8 752.975 232.75 747.15 215.55 736.975L216.075 737.275C189.75 726.25 159.2 719.425 127.2 718.475H126.825C117.525 717.85 109.425 713.1 104.3 706.075L104.25 706C102.9 701.65 102.125 696.65 102.125 691.45C102.125 682.7 104.325 674.475 108.225 667.3L108.1 667.575V667.45L108.175 667.35C109.2 662.65 109.8 657.225 109.8 651.675C109.8 644.825 108.9 638.2 107.2 631.9L107.325 632.425C106.3 628.675 105.7 624.35 105.7 619.875C105.7 613.825 106.775 608.05 108.775 602.7L108.675 603.05C113.675 592.625 121.05 590.55 130.225 586.4C141.175 583.075 150.7 578.05 159 571.575L158.8 571.725H158.85V571.65C166.85 563.275 172.75 552.875 179.725 545.475C184.6 539.25 192.025 535.225 200.4 534.975H200.45L200.425 534.925ZM538.275 533.4C538.25 533.825 538.25 534.35 538.25 534.875C538.25 553.45 549.475 569.4 565.525 576.325L565.825 576.45C567.025 576.525 568.425 576.575 569.825 576.575C590.6 576.575 609.2 567.3 621.7 552.65L621.775 552.55L628.375 552.25C629.7 552.05 631.225 551.95 632.775 551.95C641.3 551.95 649.075 555.25 654.85 560.65L654.825 560.625L654.925 560.725C661.15 568.25 665.475 577.55 667.1 587.775L667.15 588.1C668.525 600.725 673.1 612.1 680.075 621.6L679.95 621.4C690.35 630.3 697.575 642.65 699.775 656.675L699.825 657L699.925 656.775V657.325L699.825 656.95C699.35 665.125 694.05 669.325 684.275 675.55C654.675 687.975 629.25 704.5 607.35 724.75L607.525 724.6C592.325 744.4 570 758.075 544.45 761.75L543.925 761.8C542.075 762.05 539.925 762.2 537.75 762.2C518.55 762.2 502.05 750.6 494.85 734.05L494.725 733.75L494.575 733.65C492.25 726.5 490.925 718.275 490.925 709.75C490.925 699.35 492.9 689.425 496.525 680.3L496.325 680.85C502.175 664.15 507.2 644.2 510.525 623.65L510.8 621.575C511.2 601.275 513.4 581.75 517.25 562.825L516.9 564.9C519.025 551.95 526.425 541.05 536.75 534.275L536.925 534.175L538.325 533.5L538.275 533.4ZM470 253.55C485 307.225 503.475 353.6 526.175 397.475L524.2 393.3C539.525 420.55 551.45 452.175 558.275 485.675L558.625 487.775C558.85 487.775 559.125 487.775 559.4 487.775C564.825 487.775 570.075 488.5 575.075 489.875L574.65 489.775C577.4 479.9 578.975 468.575 578.975 456.875C578.975 421.225 564.3 388.975 540.65 365.9L540.625 365.875C533.75 359.625 533.375 355.4 536.775 355.4C561.05 378.15 579 407.35 587.9 440.25L588.2 441.525C590.425 449.75 591.7 459.2 591.7 468.95C591.7 477.725 590.675 486.275 588.725 494.45L588.875 493.7C590.725 494.65 592.875 495.375 595.15 495.775L595.3 495.8C627.55 512.475 639.45 525.1 633.725 543.825V542.475C631.85 542.375 629.975 542.475 628.1 542.475H627.6C632.325 527.875 621.925 516.7 594.325 504.225C565.75 491.725 542.9 493.725 539.025 518.75C538.75 519.975 538.55 521.4 538.475 522.875V522.95C536.65 523.7 534.475 524.4 532.225 524.9L531.95 524.95C519.25 533.35 510.2 546.425 507.225 561.675L507.175 562.025C503.475 579.4 501.15 599.525 500.775 620.1V620.4V620.5C498.5 636.425 495.025 650.675 490.325 664.325L490.825 662.675C466.25 682.775 434.55 694.925 399.975 694.925C371.725 694.925 345.375 686.8 323.15 672.75L323.75 673.1C320.1 666.775 315.925 661.3 311.175 656.425L311.2 656.45C308.775 652.45 305.925 649.025 302.65 646.075L302.6 646.05C307.775 646.05 312.775 645.275 317.5 643.85L317.125 643.95C321.625 641.825 325.075 638.15 326.9 633.65L326.95 633.525C327.4 631.2 327.675 628.55 327.675 625.825C327.675 614.7 323.3 604.625 316.15 597.175L316.175 597.2C300.7 578.175 282.2 562.325 261.275 550.2L260.325 549.7C243.55 540 230.85 524.825 224.575 506.65L224.4 506.1C222.075 498.15 220.725 489 220.725 479.55C220.725 470.725 221.9 462.175 224.075 454.025L223.925 454.7C233.35 421.85 246.95 393.175 264.425 367.3L263.725 368.375C267.075 366.35 264.875 372.6 250.975 398.8C239.125 416.625 232.05 438.55 232.05 462.125C232.05 483.125 237.65 502.8 247.45 519.775L247.15 519.225C248.45 486.5 255.775 455.8 268 427.75L267.375 429.375C293.75 381.825 313.725 326.6 324.25 268.075L324.75 264.8C326.25 265.925 331.525 269.025 333.775 271.1C340.575 275.25 345.65 281.5 352.2 285.625C358.875 292.125 368.025 296.125 378.075 296.125C378.6 296.125 379.125 296.125 379.65 296.1H379.575C380.8 296.2 381.925 296.3 383 296.3C394.475 296.075 405.175 293 414.475 287.75L414.15 287.925C423.2 283.75 430.4 277.5 437.275 275.425H437.425C450.8 271.8 462 264.075 469.925 253.7L470.025 253.55H470ZM382.525 186.625C382.6 186.625 382.675 186.625 382.75 186.625C396.975 186.625 410.1 191.3 420.675 199.2L420.5 199.075C429.95 204.925 440.85 209.9 452.375 213.425L453.375 213.675H453.475C459.625 216.425 464.7 220.7 468.325 226.025L468.4 226.15V222.05C469.55 224.35 470.25 227.075 470.25 229.95C470.25 232.4 469.75 234.725 468.875 236.85L468.925 236.725C461.725 249.4 450.05 258.825 436.1 262.925L435.7 263.025V263.075C427.325 267.3 420.05 273.475 411.5 277.6C402.75 282.85 392.225 285.95 380.95 285.95C380.575 285.95 380.2 285.95 379.825 285.95H379.875C379.325 285.975 378.675 286 378.025 286C373.675 286 369.475 285.225 365.625 283.775L365.875 283.85C361.9 281.675 358.625 279.625 355.45 277.425L355.8 277.675C350.125 272.7 343.875 267.925 337.325 263.55L336.675 263.15V263H336.525C327.15 258.025 319.775 250.4 315.225 241.1L315.1 240.8C314.425 239.125 314.05 237.175 314.05 235.15C314.05 229.7 316.85 224.9 321.075 222.1L321.125 222.075C328.125 217.85 333 213.6 336.225 211.575C339.475 209.275 340.7 208.4 341.725 207.475H341.775V207.375C348.475 198.9 357.35 192.4 367.575 188.725L367.975 188.6C372.325 187.35 377.325 186.625 382.5 186.575L382.525 186.625ZM339.725 133.325H340.85C345.55 133.425 349.875 135 353.375 137.575L353.325 137.525C357.8 141.5 361.45 146.325 363.95 151.775L364.05 152.05C366.875 158.175 368.625 165.3 368.825 172.8V172.875V173C368.925 174.15 368.975 175.475 368.975 176.8C368.975 178.375 368.9 179.95 368.75 181.5L368.775 181.3V183.8C367.85 184.025 367.025 184.35 366.175 184.55C361.4 186.525 357.375 188.625 353.55 191L353.9 190.8C354.1 189.425 354.2 187.85 354.2 186.25C354.2 184.925 354.125 183.6 353.975 182.3L354 182.45V181.975C353.55 178.125 352.65 174.6 351.325 171.275L351.425 171.55C350.4 168.25 348.6 165.45 346.25 163.225C344.875 161.975 343.05 161.2 341.025 161.2C340.85 161.2 340.675 161.2 340.5 161.225H340.525H339.875C337.3 161.5 335.15 163.1 334.075 165.3L334.05 165.35C332.125 167.675 330.8 170.55 330.3 173.7V173.8C329.725 175.95 329.425 178.425 329.425 180.975C329.425 182.075 329.475 183.175 329.6 184.25V184.125V184.6C330 188.45 330.9 192 332.2 195.3L332.1 195.025C333.15 198.325 334.925 201.15 337.275 203.4C337.575 203.7 337.925 203.95 338.325 204.15H338.35C336.275 205.475 334.475 206.875 332.825 208.425L332.85 208.4C331.725 209.4 330.35 210.15 328.825 210.5L328.75 210.525C325.675 206.85 322.825 202.725 320.375 198.375L320.175 197.975C317.35 191.85 315.6 184.75 315.325 177.225V177.125C315.225 175.925 315.175 174.525 315.175 173.1C315.175 167.075 316.15 161.275 317.925 155.85L317.825 156.25C319.675 149.8 322.7 144.225 326.725 139.475L326.675 139.55C329.85 135.8 334.5 133.425 339.725 133.3H339.75L339.725 133.325ZM432.275 131.475H432.675C432.7 131.475 432.725 131.475 432.775 131.475C439.65 131.475 445.95 133.8 451 137.7L450.925 137.65C456.65 142.075 461.25 147.65 464.475 154.025L464.6 154.3C467.625 160.95 469.5 168.675 469.775 176.825V176.925C469.775 176.3 469.95 175.675 469.95 175.05V178.325L469.825 177.675L469.7 176.925C469.625 184.925 467.925 192.475 464.875 199.35L465.025 199C463.475 203.075 461.225 206.575 458.375 209.475C457.625 209.025 456.7 208.6 455.775 208.225L455.625 208.175C452.25 207.125 449.3 205.7 446.625 203.95L446.75 204.025C444.825 203.225 442.525 202.525 440.15 202L439.875 201.95C441.9 200.05 443.775 198.025 445.5 195.875L445.6 195.75C447.175 192.05 448.15 187.775 448.35 183.275V183.2V182.575C448.35 182.375 448.35 182.175 448.35 181.95C448.35 177.7 447.65 173.625 446.35 169.825L446.425 170.1C444.85 166.125 442.925 162.7 440.625 159.575L440.725 159.7C438.55 157.5 435.675 156 432.45 155.575H432.375H431.875C431.85 155.575 431.8 155.575 431.775 155.575C428.475 155.575 425.525 157.2 423.725 159.675L423.7 159.7C420.8 162.525 418.6 166.025 417.35 169.95L417.3 170.125C415.725 173.8 414.7 178.075 414.5 182.525V182.6V183.2C414.55 186.2 414.775 189.1 415.175 191.925L415.125 191.55C409.1 189.45 401.45 187.325 396.15 185.25C395.85 183.425 395.65 181.275 395.6 179.075V179V178.375C395.575 177.875 395.575 177.3 395.575 176.725C395.575 168.625 397.3 160.95 400.425 154.025L400.275 154.375C402.925 147.4 407.6 141.675 413.575 137.8L413.7 137.725C418.8 133.825 425.275 131.475 432.275 131.475ZM415.75 25.1001C410.9 25.1001 405.9 25.3501 400.75 25.7501C268.725 36.1501 303.75 175.925 301.725 222.5C300.475 258.15 288.375 290.725 268.6 317.3L268.925 316.85C233.75 356.9 205.05 403.7 185.15 454.925L184.075 458.1C177.625 475.225 173.875 495 173.875 515.65C173.875 522.775 174.325 529.8 175.175 536.675L175.1 535.85C173.7 537 172.525 538.4 171.7 540L171.675 540.075C163.55 548.45 157.625 558.825 150.95 566.275C143.875 571.7 135.575 575.975 126.575 578.625L126.05 578.75C114.45 582.225 105 589.8 99.1754 599.775L99.0504 600C96.4504 605.3 94.9254 611.525 94.9254 618.125C94.9254 618.375 94.9254 618.6 94.9254 618.85C94.9754 624.8 95.5754 630.55 96.7504 636.15L96.6504 635.575C98.0504 641.05 98.8504 647.35 98.8504 653.825C98.8504 658.075 98.5004 662.25 97.8254 666.325L97.8754 665.875C93.7004 673.7 91.2754 683 91.2754 692.875C91.2754 699.825 92.4754 706.475 94.7004 712.65L94.5754 712.25C101.4 721.95 111.725 728.8 123.675 730.975L123.95 731.025C155.8 733.7 185.225 740.35 212.975 750.525L210.625 749.775C228.075 760.15 249.1 766.275 271.525 766.275C278.875 766.275 286.075 765.625 293.075 764.35L292.35 764.45C309.025 760.675 322.625 749.8 329.95 735.225L330.1 734.9C348.45 734.8 368.525 726.5 400.7 724.475C422.525 722.675 449.875 732.825 481.2 730.725C482.125 734.7 483.35 738.175 484.9 741.45L484.75 741.125L484.85 741.225C494.45 761.325 514.6 774.975 537.95 774.975C539.975 774.975 541.975 774.875 543.95 774.675L543.7 774.7C572.475 770.45 597.175 755.5 614.025 734.125L614.2 733.9C635.275 714.7 659.875 698.875 686.825 687.575L688.5 686.95C699.3 682.175 707.05 672.325 708.75 660.475L708.775 660.3C707.3 642.95 698.975 627.825 686.575 617.4L686.475 617.325V614.3L686.375 614.2C681.025 605.95 677.275 596.15 675.85 585.65L675.8 585.275C674.475 572.45 668.85 561.125 660.425 552.6H660.325C658.475 550.925 656.475 550.5 654.45 548.375C652.8 547.2 650.75 546.475 648.525 546.375C653.4 531.325 656.2 514.025 656.2 496.05C656.2 472.55 651.375 450.175 642.675 429.875L643.1 430.975C625.5 389.175 602.625 353.2 574.8 321.75L575.15 322.175C547.525 295.125 529.45 258.4 526.45 217.5L526.425 216.975C527.25 149.75 533.8 25.3751 415.7 25.2001L415.75 25.1001Z" fill="white"/>
</svg>
