<svg width="176" height="48" viewBox="0 0 176 48" fill="none" xmlns="http://www.w3.org/2000/svg">
<g clip-path="url(#clip0_104_39)">
<path d="M0.51 19.8499C0.51 22.6299 2.13 23.8499 5.51 24.6299L8.12 25.1899C11.18 25.8699 11.79 26.5799 11.79 28.0799C11.79 29.8799 10.22 30.9899 7.39 30.9899C4.56 30.9899 2.91 29.7199 2.73 27.1199H0C0 31.1199 2.86 33.4199 7.34 33.4199C12.25 33.4199 14.63 30.9399 14.63 27.7199C14.63 24.8299 12.91 23.4399 10 22.8099L7.27 22.1799C4.13 21.4999 3.27 21.0899 3.27 19.4999C3.27 17.9099 4.41 16.7099 7 16.7099C10.14 16.7099 11.08 18.1299 11.3 20.0499H14.03C14.03 16.1299 10.97 14.2299 7.12 14.2299C2.61 14.2299 0.46 16.8099 0.46 19.8499M15.83 14.7099V25.5799C15.83 31.1199 18.46 33.3799 23.05 33.3799C27.64 33.3799 30.26 31.0799 30.26 25.5799V14.7099H27.26V25.9299C27.26 29.4999 25.74 30.8699 22.88 30.8699C20.32 30.8699 18.78 29.3999 18.78 25.9299V14.7099H15.83ZM32.26 14.7099V32.8899H35V18.7699L43.71 32.8999H46.82V14.7099H44.1V28.7599L35.57 14.7099H32.26ZM64.36 20.3599C64.06 16.7099 61.09 14.2799 56.82 14.2799C51.53 14.2799 48.34 18.1299 48.34 23.7199C48.34 30.2299 51.91 33.3699 56.59 33.3699C58.5578 33.4688 60.4856 32.7903 61.9578 31.4809C63.43 30.1714 64.3287 28.3358 64.46 26.3699H61.64C61.06 29.2599 59.46 30.8299 56.8 30.8299C53.8 30.8299 51.36 28.8299 51.36 24.0199C51.36 19.0199 53.61 16.7799 56.8 16.7799C59.58 16.7799 61 18.1199 61.53 20.3499L64.36 20.3599ZM65.63 23.8499C65.63 30.0499 69.2 33.4199 74.39 33.4199C79.91 33.4199 83.25 29.4999 83.25 23.5699C83.25 17.0099 79.4 14.1799 74.41 14.1799C69.42 14.1799 65.63 17.5699 65.63 23.8499ZM68.63 23.9499C68.63 19.2699 71.06 16.7399 74.55 16.7399C77.77 16.7399 80.35 19.0399 80.35 23.5999C80.35 28.4399 78 30.8699 74.63 30.8699C70.93 30.8699 68.63 28.5399 68.63 23.9599M87.69 17.1799H93.16C95.31 17.1799 96.43 18.0399 96.43 20.0399C96.43 22.0399 95.32 22.9499 92.91 22.9499H87.69V17.1799ZM84.8 14.7199V32.8899H87.69V25.3199H92.69C95.09 25.3199 95.93 26.0499 96.01 28.0999L96.14 30.6599C96.1288 31.4162 96.2402 32.1693 96.47 32.8899H99.58C99.1303 31.9179 98.9309 30.8487 99 29.7799L98.95 27.7799C98.9 25.6799 98.37 24.7799 96.7 24.0599C97.5332 23.6972 98.235 23.0874 98.7107 22.3131C99.1864 21.5388 99.413 20.6371 99.36 19.7299C99.36 16.7299 97.51 14.7299 93.36 14.7299L84.8 14.7199ZM101.08 14.7199V32.8899H104V25.5799H109.09C112.84 25.5799 114.79 23.4799 114.79 20.1099C114.79 16.5899 112.61 14.7199 109.2 14.7199H101.08ZM104 17.1699H108.46C110.84 17.1699 111.88 18.1699 111.88 20.1699C111.88 22.1699 110.77 23.1699 108.46 23.1699H104V17.1699Z" fill="white"/>
<path d="M141.42 0C136.673 0 132.033 1.40758 128.086 4.04473C124.139 6.68188 121.063 10.4302 119.247 14.8156C117.43 19.201 116.955 24.0266 117.881 28.6822C118.807 33.3377 121.093 37.6141 124.449 40.9706C127.806 44.327 132.082 46.6128 136.738 47.5388C141.393 48.4649 146.219 47.9896 150.604 46.1731C154.99 44.3566 158.738 41.2805 161.375 37.3337C164.012 33.3869 165.42 28.7468 165.42 24C165.42 17.6348 162.891 11.5303 158.39 7.02944C153.89 2.52856 147.785 0 141.42 0ZM141.42 36C139.047 36 136.726 35.2962 134.753 33.9776C132.78 32.6591 131.242 30.7849 130.333 28.5922C129.425 26.3995 129.187 23.9867 129.651 21.6589C130.114 19.3311 131.256 17.1929 132.935 15.5147C134.613 13.8365 136.751 12.6936 139.079 12.2306C141.407 11.7676 143.819 12.0052 146.012 12.9134C148.205 13.8217 150.079 15.3598 151.398 17.3332C152.716 19.3065 153.42 21.6266 153.42 24C153.42 27.1826 152.156 30.2348 149.905 32.4853C147.655 34.7357 144.603 36 141.42 36Z" fill="url(#paint0_radial_104_39)"/>
</g>
<defs>
<radialGradient id="paint0_radial_104_39" cx="0" cy="0" r="1" gradientUnits="userSpaceOnUse" gradientTransform="translate(141.42 24) scale(24 24)">
<stop stop-color="white"/>
<stop offset="0.5" stop-color="white"/>
<stop offset="0.59" stop-color="white" stop-opacity="0.78"/>
<stop offset="0.7" stop-color="white" stop-opacity="0.5"/>
<stop offset="0.8" stop-color="white" stop-opacity="0.29"/>
<stop offset="0.89" stop-color="white" stop-opacity="0.13"/>
<stop offset="0.96" stop-color="white" stop-opacity="0.04"/>
<stop offset="1" stop-color="white" stop-opacity="0"/>
</radialGradient>
<clipPath id="clip0_104_39">
<rect width="176" height="48" fill="white"/>
</clipPath>
</defs>
</svg>
