<svg width="46" height="46" viewBox="0 0 46 46" fill="none" xmlns="http://www.w3.org/2000/svg">
<path d="M17.1145 41.8356H28.5242C38.0323 41.8356 41.8356 38.0323 41.8356 28.5242V17.1145C41.8356 7.60646 38.0323 3.80322 28.5242 3.80322H17.1145C7.60646 3.80322 3.80322 7.60646 3.80322 17.1145V28.5242C3.80322 38.0323 7.60646 41.8356 17.1145 41.8356Z" stroke="#FFFCF5" stroke-width="4.50976" stroke-linecap="round" stroke-linejoin="round"/>
<path d="M22.8197 29.4751C26.4955 29.4751 29.4754 26.4952 29.4754 22.8194C29.4754 19.1436 26.4955 16.1638 22.8197 16.1638C19.1439 16.1638 16.1641 19.1436 16.1641 22.8194C16.1641 26.4952 19.1439 29.4751 22.8197 29.4751Z" stroke="#FFFCF5" stroke-width="4.50976" stroke-linecap="round" stroke-linejoin="round"/>
<path d="M33.5371 13.3113H33.5598" stroke="#FFFCF5" stroke-width="6.01302" stroke-linecap="round" stroke-linejoin="round"/>
</svg>
