<svg width="46" height="46" viewBox="0 0 46 46" fill="none" xmlns="http://www.w3.org/2000/svg">
<g clip-path="url(#clip0_34_128)">
<path fill-rule="evenodd" clip-rule="evenodd" d="M27.7636 14.2935V16.0752C29.4825 15.0074 31.4669 14.3849 34.4821 14.3849C44.2957 14.3849 45.552 21.7201 45.552 28.1103V45.5389L34.2051 45.6388V28.9697C34.2051 26.1715 33.2029 25.6404 31.3498 25.6404C29.5881 25.6404 28.4946 26.1972 28.4946 28.9697V45.6388L16.9992 45.5389V14.2935L27.7636 14.2935ZM11.4211 14.2747V45.6257H0V14.2747H11.4211V14.2747ZM8.56583 17.13H2.85528V42.7704H8.56583V17.13V17.13ZM24.9083 17.1488H19.8545V42.7093L25.6393 42.7607V28.9697C25.6393 23.5875 29.2169 22.7852 31.3498 22.7852C33.9539 22.7852 37.0604 23.8587 37.0604 28.9697V42.7607L42.6967 42.7093V28.1103C42.6967 20.1868 40.4725 17.2402 34.4821 17.2402C30.8816 17.2402 29.3226 18.3081 27.795 19.593L27.3981 19.9299H24.9083V17.1488ZM5.71056 0C8.85994 0 11.4211 2.56119 11.4211 5.71056C11.4211 8.85994 8.85994 11.4211 5.71056 11.4211C2.56119 11.4211 0 8.85994 0 5.71056C0 2.56119 2.56119 0 5.71056 0ZM5.71056 2.85528C4.1373 2.85528 2.85528 4.1373 2.85528 5.71056C2.85528 7.28381 4.1373 8.56583 5.71056 8.56583C7.28381 8.56583 8.56583 7.28381 8.56583 5.71056C8.56583 4.1373 7.28381 2.85528 5.71056 2.85528Z" fill="#FFFCF5"/>
</g>
<defs>
<clipPath id="clip0_34_128">
<rect width="45.6388" height="45.6388" fill="white"/>
</clipPath>
</defs>
</svg>
