<svg width="46" height="46" viewBox="0 0 46 46" fill="none" xmlns="http://www.w3.org/2000/svg">
<g clip-path="url(#clip0_34_134)">
<path fill-rule="evenodd" clip-rule="evenodd" d="M38.6586 12.1963C38.3186 12.4619 38.1274 12.8736 38.1486 13.3039C38.1619 13.689 38.1725 14.0741 38.1725 14.4646C38.1725 26.9375 29.3888 39.8435 14.6901 39.8435C11.8162 39.8435 8.9848 39.2724 6.3234 38.1701C9.53195 37.6389 12.5891 36.2312 15.1416 34.0824C15.5639 33.7239 15.7206 33.1448 15.5374 32.6242C15.3541 32.1036 14.8654 31.7504 14.3102 31.7371C11.8321 31.6866 9.58771 30.263 8.28094 28.0398C9.17602 28.0133 10.1402 27.8725 10.8627 27.6627C11.447 27.4927 11.8401 26.9482 11.8215 26.3426C11.8003 25.7344 11.37 25.2191 10.775 25.0889C8.13751 24.5179 6.19591 22.3425 5.53985 19.3544C6.29419 19.5058 7.00602 19.5536 7.39913 19.5643C7.97813 19.628 8.51202 19.2243 8.70324 18.6692C8.89185 18.1167 8.69793 17.5031 8.2225 17.1605C6.38716 15.8378 4.42164 13.3703 4.42164 10.4247C4.42164 9.69957 4.51195 8.98243 4.68459 8.28918C9.27432 13.3968 15.5374 16.4805 22.1775 16.8391C22.6238 16.863 22.993 16.6877 23.2612 16.3743C23.5295 16.0609 23.6358 15.6359 23.5508 15.2322C23.418 14.6293 23.3516 14.0051 23.3516 13.3729C23.3516 8.9293 26.669 5.31437 30.7461 5.31437C32.7966 5.31437 34.7037 6.20415 36.1114 7.82438C36.4248 8.18561 36.9188 8.35294 37.3863 8.252C38.061 8.10857 38.725 7.92795 39.3784 7.7075C38.9906 8.10059 38.563 8.45122 38.0981 8.75134C37.5749 9.08865 37.3571 9.7394 37.5696 10.3237C37.7821 10.9081 38.3823 11.2613 38.9879 11.1843C39.3332 11.1392 39.6758 11.086 40.0158 11.0196C39.5855 11.4366 39.134 11.8298 38.6586 12.1963ZM44.8127 7.50034C44.4196 7.06206 43.7875 6.93992 43.2509 7.18958C43.1553 7.23473 43.0597 7.27988 42.9614 7.32504C43.3625 6.61319 43.6892 5.85089 43.9256 5.05142C44.085 4.52021 43.8964 3.94648 43.4528 3.61182C43.0066 3.27981 42.4063 3.25325 41.9362 3.55338C40.5657 4.43256 39.0915 5.07797 37.551 5.48435C35.7103 3.67821 33.272 2.65826 30.7461 2.65826C25.2055 2.65826 20.6955 7.46579 20.6955 13.3729C20.6955 13.596 20.7008 13.8192 20.7141 14.0396C14.722 13.264 9.18401 9.99438 5.33005 4.90267C5.05913 4.5441 4.62088 4.36083 4.172 4.38209C3.72047 4.41661 3.31675 4.6769 3.10158 5.07531C2.22775 6.69552 1.76558 8.54681 1.76558 10.4247C1.76558 12.4619 2.44023 14.3052 3.41768 15.8511C2.96083 16.0635 2.64208 16.523 2.64208 17.0596V17.1817C2.64208 20.47 3.81343 23.3412 5.78158 25.2828C5.5691 25.3519 5.3752 25.4767 5.2185 25.644C5.0632 25.8134 4.95442 26.0201 4.90275 26.244C4.85108 26.4679 4.85828 26.7013 4.92367 26.9216C5.88252 30.1434 8.16408 32.6163 11.0008 33.7371C8.11098 35.3733 4.68195 36.0214 1.48935 35.6362C0.865172 35.5433 0.302071 35.9151 0.0869335 36.4835C-0.130861 37.0546 0.0710122 37.7027 0.575649 38.048C4.80149 40.959 9.68338 42.4996 14.6901 42.4996C31.0516 42.4996 40.8286 28.2443 40.8286 14.4646C40.8286 14.2627 40.826 14.0635 40.8207 13.8643C42.4329 12.5203 43.8194 10.9161 44.9535 9.08865C45.2643 8.58668 45.2085 7.93858 44.8127 7.50034Z" fill="#FFFCF5"/>
</g>
<defs>
<clipPath id="clip0_34_134">
<rect width="45.1534" height="45.1534" fill="white"/>
</clipPath>
</defs>
</svg>
