<svg width="46" height="46" viewBox="0 0 46 46" fill="none" xmlns="http://www.w3.org/2000/svg">
<g clip-path="url(#clip0_34_126)">
<path fill-rule="evenodd" clip-rule="evenodd" d="M44.528 16.0262C44.528 13.1151 43.6788 10.5443 42.0007 8.37506C42.3741 7.00392 42.7732 4.28725 41.5069 0.91827C41.3739 0.560148 41.0823 0.281323 40.7191 0.155959C40.2637 -6.87482e-05 37.8157 -0.565396 32.9093 2.79334C30.9089 2.26637 28.7985 1.99523 26.6139 1.98244C24.437 1.99523 22.3266 2.26637 20.3313 2.79334C15.4198 -0.562829 12.9717 -6.87482e-05 12.5138 0.155983C12.1506 0.278756 11.859 0.560148 11.726 0.920837C10.4623 4.28725 10.8613 7.00392 11.2374 8.37503C9.55671 10.552 8.70488 13.1203 8.70488 16.0262C8.70488 26.0769 13.9796 29.2693 18.9781 30.423C17.873 31.633 16.7142 33.398 16.466 35.6414C14.7598 36.2605 10.3421 37.4986 8.73814 34.5952C8.66652 34.4622 6.99355 31.3234 3.62714 31.0753C3.0311 31.1034 1.61649 31.1776 1.22511 32.3671C0.785122 33.6973 2.16391 34.6898 2.83925 35.158C2.85204 35.1657 4.16432 35.9177 5.06987 38.2967C5.0929 38.4067 5.6352 41.0236 8.27768 42.6122C10.3574 43.8656 13.0868 44.1214 16.3893 43.3796C16.3893 43.9372 16.3816 44.5256 16.3791 44.8863L16.3714 45.6256H18.9295L18.9346 44.917C18.9807 41.0773 18.9832 41.0031 18.203 40.599C17.9063 40.4455 17.5609 40.4097 17.2437 40.512C14.0052 41.4866 11.373 41.4636 9.63603 40.4455C7.96052 39.4581 7.59215 37.8567 7.5231 37.6009C7.43099 37.3477 7.33122 37.1098 7.23146 36.8821C10.25 40.3457 16.0773 38.7162 18.2439 37.6854C18.6916 37.4756 18.9755 37.0254 18.9755 36.5317C18.9755 32.9811 22.5005 30.7274 22.5364 30.7044C22.9968 30.4153 23.2245 29.8679 23.1068 29.3409C22.9891 28.8114 22.5517 28.4124 22.0119 28.3484C16.6963 27.7115 11.263 25.7494 11.263 16.0262C11.263 13.4988 12.0611 11.2963 13.6343 9.48524C13.9413 9.1271 14.0308 8.62828 13.862 8.18829C13.6292 7.5846 12.9948 5.50744 13.8543 2.6066C14.7036 2.70382 16.4891 3.18471 19.349 5.22862C19.6662 5.45629 20.0729 5.5228 20.4516 5.41536C22.365 4.85514 24.501 4.55328 26.6139 4.54049C28.7371 4.55328 30.8705 4.85514 32.7891 5.41536C33.1677 5.5228 33.5719 5.45629 33.8916 5.22862C36.772 3.16938 38.5601 2.69868 39.3761 2.59892C40.2433 5.50233 39.6089 7.5846 39.3761 8.18829C39.2047 8.62828 39.2942 9.12967 39.6038 9.48524C41.1744 11.2912 41.97 13.4912 41.97 16.0262C41.97 25.752 36.5239 27.7012 31.198 28.3279C30.6992 28.3868 30.2796 28.7296 30.1287 29.2079C29.9752 29.6837 30.1159 30.2081 30.4868 30.5458C30.6378 30.6814 30.8424 30.8425 31.0829 31.0267C32.303 31.9604 34.3444 33.5234 34.3444 37.1968C34.3444 39.2279 34.3111 45.6179 34.3111 45.6179L36.8692 45.6307C36.8692 45.6307 36.9025 39.2304 36.9025 37.1968C36.9025 33.8252 35.5595 31.7302 34.2677 30.4C39.2687 29.2488 44.5281 26.0615 44.5281 16.0262" fill="#FFFCF5"/>
</g>
<defs>
<clipPath id="clip0_34_126">
<rect width="45.6388" height="45.6388" fill="white"/>
</clipPath>
</defs>
</svg>
